<svg width="32" height="36" viewBox="0 0 32 36" fill="none" xmlns="http://www.w3.org/2000/svg">
<g clip-path="url(#clip0)">
<path d="M25.0601 9.07031C26.9151 9.39867 28.4365 10.383 29.6258 12.0234C30.6722 13.4768 31.3858 15.3049 31.7658 17.5078C32.0993 19.5237 32.0743 21.5388 31.6943 23.5547C31.1236 26.8826 29.9822 29.6719 28.2701 31.9219C26.2243 34.6409 23.6565 36 20.5651 36C19.8036 36 18.9722 35.7659 18.0679 35.2969C17.4493 34.9221 16.7601 34.7344 15.9986 34.7344C15.2372 34.7344 14.5486 34.9221 13.9293 35.2969C13.0251 35.7659 12.1936 36 11.4322 36C8.34077 36 5.77291 34.6409 3.72719 31.9219C2.01505 29.6719 0.873622 26.8826 0.302908 23.5547C-0.0770923 21.5388 -0.102092 19.5237 0.231479 17.5078C0.611479 15.3049 1.32505 13.4768 2.37148 12.0234C3.56076 10.383 5.08219 9.39867 6.93719 9.07031C8.07862 8.88258 9.64791 9.04711 11.6458 9.5625C13.3579 10.0315 14.8086 10.594 15.9979 11.25C17.1872 10.594 18.6379 10.0315 20.3501 9.5625C22.3486 9.04711 23.9186 8.88258 25.0601 9.07031ZM21.1358 6.1875C20.4701 6.79711 19.5893 7.24219 18.4958 7.52344C17.7343 7.75758 16.9029 7.875 15.9986 7.875L14.9286 7.80469C14.8336 7.14867 14.8336 6.39844 14.9286 5.55469C15.1193 3.86719 15.6658 2.57836 16.5693 1.6875C17.2351 1.07789 18.1158 0.632812 19.2093 0.351562C19.9708 0.117422 20.8022 0 21.7065 0L22.7765 0.0703125L22.8479 1.125C22.8479 2.01586 22.7286 2.8357 22.4915 3.58594C22.2065 4.66383 21.7551 5.53148 21.1358 6.1875Z" fill="#FF9A9A"/>
</g>
<defs>
<clipPath id="clip0">
<rect width="32" height="36" fill="white"/>
</clipPath>
</defs>
</svg>
