<svg width="32" height="32" viewBox="0 0 32 32" fill="none" xmlns="http://www.w3.org/2000/svg">
<path d="M29.8411 9.19187C29.5549 8.95301 29.2074 8.7994 28.8382 8.74856C28.4689 8.69772 28.0928 8.75172 27.7528 8.90437L21.4298 11.7147L17.7483 5.08787C17.5751 4.77609 17.3217 4.51629 17.0143 4.33541C16.7069 4.15453 16.3567 4.05914 16.0001 4.05914C15.6434 4.05914 15.2932 4.15453 14.9858 4.33541C14.6784 4.51629 14.425 4.77609 14.2518 5.08787L10.5701 11.7146L4.24619 8.90375C3.90594 8.75256 3.53024 8.69936 3.16139 8.75012C2.79254 8.80089 2.44518 8.95361 2.15842 9.19109C1.87166 9.42858 1.65689 9.74139 1.53828 10.0943C1.41967 10.4473 1.40193 10.8263 1.48707 11.1887L4.66757 24.7307C4.72808 24.9929 4.8414 25.24 5.00062 25.4569C5.15983 25.6738 5.36159 25.8559 5.59357 25.9922C5.82677 26.1295 6.08517 26.2185 6.35344 26.2539C6.6217 26.2893 6.89435 26.2705 7.15519 26.1985C12.9414 24.6011 19.0523 24.6006 24.8388 26.1969C25.0996 26.2688 25.3721 26.2875 25.6402 26.2521C25.9083 26.2166 26.1666 26.1277 26.3997 25.9905C26.6316 25.8543 26.8333 25.6723 26.9925 25.4556C27.1517 25.2389 27.2651 24.992 27.3257 24.73L30.5119 11.1902C30.5986 10.8278 30.5817 10.4482 30.4631 10.0949C30.3444 9.74155 30.1289 9.42869 29.8409 9.192L29.8411 9.19187ZM20.9946 20.3144C20.981 20.445 20.9418 20.5718 20.8792 20.6873C20.8166 20.8027 20.7318 20.9048 20.6297 20.9874C20.5276 21.0701 20.4102 21.1318 20.2842 21.169C20.1582 21.2063 20.0261 21.2183 19.8954 21.2044C17.3056 20.9324 14.6945 20.9324 12.1047 21.2044C11.8416 21.2308 11.5788 21.1519 11.3738 20.9851C11.1687 20.8182 11.038 20.5769 11.0104 20.314C10.9827 20.0511 11.0603 19.7879 11.2261 19.582C11.392 19.3761 11.6326 19.2443 11.8954 19.2154C14.6244 18.9288 17.3758 18.9288 20.1047 19.2154C20.2353 19.2291 20.3619 19.2684 20.4773 19.3311C20.5928 19.3937 20.6947 19.4785 20.7773 19.5806C20.86 19.6827 20.9217 19.8 20.959 19.9259C20.9963 20.0519 21.0084 20.1839 20.9947 20.3145L20.9946 20.3144Z" fill="#FBC02A"/>
</svg>
