<svg width="32" height="32" viewBox="0 0 32 32" fill="none" xmlns="http://www.w3.org/2000/svg">
<path d="M25.3333 10.6667V14.6667H7.77331L11.6133 10.8267C11.8626 10.5774 12.0027 10.2392 12.0027 9.88667C12.0027 9.5341 11.8626 9.19598 11.6133 8.94667C11.364 8.69737 11.0259 8.55731 10.6733 8.55731C10.3207 8.55731 9.98262 8.69737 9.73331 8.94667L3.61331 15.0667C3.48971 15.19 3.39165 15.3365 3.32474 15.4978C3.25783 15.6591 3.22339 15.832 3.22339 16.0067C3.22339 16.1813 3.25783 16.3542 3.32474 16.5155C3.39165 16.6768 3.48971 16.8233 3.61331 16.9467L9.73331 23.0667C9.85676 23.1901 10.0033 23.288 10.1646 23.3548C10.3259 23.4216 10.4987 23.456 10.6733 23.456C10.8479 23.456 11.0208 23.4216 11.182 23.3548C11.3433 23.288 11.4899 23.1901 11.6133 23.0667C11.7368 22.9432 11.8347 22.7967 11.9015 22.6354C11.9683 22.4741 12.0027 22.3012 12.0027 22.1267C12.0027 21.9521 11.9683 21.7792 11.9015 21.6179C11.8347 21.4567 11.7368 21.3101 11.6133 21.1867L7.77331 17.3333H26.6666C27.4 17.3333 28 16.7333 28 16V10.6667C28 9.93334 27.4 9.33334 26.6666 9.33334C25.9333 9.33334 25.3333 9.93334 25.3333 10.6667Z" fill="#FF9A9A"/>
</svg>
