<svg width="32" height="32" viewBox="0 0 32 32" fill="none" xmlns="http://www.w3.org/2000/svg">
<path d="M32 19.4667C32 20.2667 30.4 20.8 28.5333 21.0667C27.3333 18.8 24.9333 17.0667 22.1333 15.8667C22.4 15.4667 22.6667 15.2 22.9333 14.8H24C28.1333 14.6667 32 17.2 32 19.4667ZM9.06667 14.6667H8C3.86667 14.6667 0 17.2 0 19.4667C0 20.2667 1.6 20.8 3.46667 21.0667C4.66667 18.8 7.06667 17.0667 9.86667 15.8667L9.06667 14.6667ZM16 16C18.9333 16 21.3333 13.6 21.3333 10.6667C21.3333 7.73334 18.9333 5.33334 16 5.33334C13.0667 5.33334 10.6667 7.73334 10.6667 10.6667C10.6667 13.6 13.0667 16 16 16ZM16 17.3333C10.5333 17.3333 5.33333 20.8 5.33333 24C5.33333 26.6667 16 26.6667 16 26.6667C16 26.6667 26.6667 26.6667 26.6667 24C26.6667 20.8 21.4667 17.3333 16 17.3333ZM23.6 13.3333H24C26.2667 13.3333 28 11.6 28 9.33334C28 7.06668 26.2667 5.33334 24 5.33334C23.3333 5.33334 22.8 5.46668 22.2667 5.73334C23.3333 7.06668 24 8.80001 24 10.6667C24 11.6 23.8667 12.5333 23.6 13.3333ZM8 13.3333H8.4C8.13333 12.5333 8 11.6 8 10.6667C8 8.80001 8.66667 7.06668 9.73333 5.73334C9.2 5.46668 8.66667 5.33334 8 5.33334C5.73333 5.33334 4 7.06668 4 9.33334C4 11.6 5.73333 13.3333 8 13.3333Z" fill="white"/>
</svg>
